<svg width="344.3199951171875px" height="118.439990234375px" xmlns="http://www.w3.org/2000/svg" viewBox="77.84000244140626 15.780004882812499 344.3199951171875 118.439990234375" style="background: rgb(16, 154, 215);" preserveAspectRatio="xMidYMid"><defs><linearGradient id="editing-shiny-gradient" x1="0.04322727117869957" x2="0.9567727288213004" y1="0.2966316784620999" y2="0.7033683215379001" gradientUnits="objectBoundingBox"><stop offset="0.0" stop-color="#fdfdfe"></stop><stop offset="0.5" stop-color="#109ad7"></stop><stop offset="1.0" stop-color="#fdfdfe"></stop></linearGradient><linearGradient id="editing-shiny-gradient2" x1="0" x2="0" y1="0" y2="1"><stop offset="0.2" stop-color="#fff" stop-opacity="0.8"></stop><stop offset="0.8" stop-color="#fff" stop-opacity="0"></stop></linearGradient><filter id="editing-shiny2" x="-100%" y="-100%" width="300%" height="300%"><feMorphology operator="erode" radius="2"></feMorphology></filter><filter id="editing-shiny" x="-100%" y="-100%" width="300%" height="300%"><feFlood flood-color="#fff" result="flood"></feFlood><feConvolveMatrix in="SourceGraphic" result="conv" order="8,8" divisor="1" kernelMatrix="0 0 0 0 0 0 0 0 0 0 0 1 1 0 0 0 0 0 0 1 1 0 0 0 0 0 1 0 0 1 0 0 0 0 1 0 0 1 0 0 0 1 0 0 0 0 1 0 0 1 1 0 0 1 1 0 0 0 0 1 1 0 0 0 "></feConvolveMatrix><feOffset dx="0" dy="4" in="conv" result="offset"></feOffset><feComposite operator="in" in="flood" in2="offset" result="comp"></feComposite><feGaussianBlur in="offset" stdDeviation="3" result="shadow"></feGaussianBlur><feColorMatrix in="shadow" type="matrix" values="0.7 0 0 0 0  0 0.7 0 0 0  0 0 0.7 0 0  0 0 0 0.3 0" result="dark-shadow"></feColorMatrix><feOffset dx="0" dy="4" in="dark-shadow" result="offset-shadow"></feOffset><feOffset dx="0" dy="2" in="conv" result="offset-2"></feOffset><feComposite operator="out" in="offset" in2="offset-2" result="edge-diff"></feComposite><feGaussianBlur in="edge-diff" stdDeviation="1" result="edge-blur"></feGaussianBlur><feColorMatrix in="edge-blur" result="edge-shadow" type="matrix" values="0 0 0 0 0  0 0 0 0 0  0 0 0 0 0  0 0 0 0.5 0"></feColorMatrix><feComposite operator="in" in="edge-shadow" in2="offset" result="edge-shadow-in"></feComposite><feOffset dx="0" dy="1" in="edge-shadow-in" result="edge-shadow-final"></feOffset><feMerge result="out"><feMergeNode in="offset-shadow"></feMergeNode><feMergeNode in="comp"></feMergeNode><feMergeNode in="edge-shadow-final"></feMergeNode><feMergeNode in="SourceGraphic"></feMergeNode></feMerge></filter></defs><g filter="url(#editing-shiny)"><g transform="translate(131.43999886512756, 97.85000038146973)"><path d="M3.84 0L3.84-33.28L7.81-33.28L8.38-31.42L11.01-32.19L11.01-32.19Q13.70-33.02 15.26-33.38L15.26-33.38L15.26-33.38Q16.83-33.73 18.24-33.73L18.24-33.73L18.24-33.73Q20.54-33.73 21.63-32.13L21.63-32.13L21.63-32.13Q22.72-30.53 22.72-27.97L22.72-27.97L22.72 0L17.60 0L17.60-26.30L17.60-26.30Q17.60-28.16 17.34-28.90L17.34-28.90L17.34-28.90Q17.09-29.63 16.06-29.63L16.06-29.63L16.06-29.63Q15.55-29.63 8.96-27.58L8.96-27.58L8.96 0L3.84 0ZM37.95 0.45L37.95 0.45Q33.47 0.45 31.01-1.82L31.01-1.82L31.01-1.82Q28.54-4.10 28.54-8.13L28.54-8.13L28.54-25.15L28.54-25.15Q28.54-29.18 31.01-31.46L31.01-31.46L31.01-31.46Q33.47-33.73 37.95-33.73L37.95-33.73L37.95-33.73Q42.43-33.73 44.90-31.46L44.90-31.46L44.90-31.46Q47.36-29.18 47.36-25.15L47.36-25.15L47.36-8.13L47.36-8.13Q47.36-4.10 44.90-1.82L44.90-1.82L44.90-1.82Q42.43 0.45 37.95 0.45L37.95 0.45ZM37.95-3.52L37.95-3.52Q40-3.52 41.18-4.70L41.18-4.70L41.18-4.70Q42.37-5.89 42.37-8.13L42.37-8.13L42.37-25.15L42.37-25.15Q42.37-27.39 41.18-28.58L41.18-28.58L41.18-28.58Q40-29.76 37.95-29.76L37.95-29.76L37.95-29.76Q35.90-29.76 34.72-28.58L34.72-28.58L34.72-28.58Q33.54-27.39 33.54-25.15L33.54-25.15L33.54-8.13L33.54-8.13Q33.54-5.89 34.72-4.70L34.72-4.70L34.72-4.70Q35.90-3.52 37.95-3.52L37.95-3.52ZM60.22 0L54.59 0L54.59-44.80L60.22-44.80L60.22-25.86L72.96-25.86L72.96-44.80L78.59-44.80L78.59 0L72.96 0L72.96-21.63L60.22-21.63L60.22 0ZM93.76 0L93.76 0Q90.24 0 88.16-2.11L88.16-2.11L88.16-2.11Q86.08-4.22 86.08-7.81L86.08-7.81L86.08-24.83L86.08-24.83Q86.08-28.99 88.38-31.36L88.38-31.36L88.38-31.36Q90.69-33.73 95.23-33.73L95.23-33.73L95.23-33.73Q99.78-33.73 102.05-31.36L102.05-31.36L102.05-31.36Q104.32-28.99 104.32-24.83L104.32-24.83L104.32-21.89L104.32-21.89Q104.32-19.20 102.78-17.82L102.78-17.82L102.78-17.82Q101.25-16.45 98.75-15.74L98.75-15.74L91.20-13.63L91.20-7.36L91.20-7.36Q91.20-5.82 92.13-4.83L92.13-4.83L92.13-4.83Q93.06-3.84 94.53-3.84L94.53-3.84L101.44-3.84L101.44 0L93.76 0ZM91.20-17.66L95.10-18.75L95.10-18.75Q97.22-19.33 97.95-19.62L97.95-19.62L97.95-19.62Q98.69-19.90 98.94-20.48L98.94-20.48L98.94-20.48Q99.20-21.06 99.20-22.40L99.20-22.40L99.20-25.92L99.20-25.92Q99.20-27.97 98.14-28.93L98.14-28.93L98.14-28.93Q97.09-29.89 95.23-29.89L95.23-29.89L95.23-29.89Q93.44-29.89 92.32-28.86L92.32-28.86L92.32-28.86Q91.20-27.84 91.20-25.92L91.20-25.92L91.20-17.66ZM107.52 0L107.52-3.84L112.96-3.84L112.96-3.84Q115.71-3.84 116.96-5.34L116.96-5.34L116.96-5.34Q118.21-6.85 118.21-9.28L118.21-9.28L118.21-9.28Q118.21-11.20 117.06-12.54L117.06-12.54L117.06-12.54Q115.90-13.89 113.60-15.68L113.60-15.68L113.60-15.68Q111.62-17.28 110.43-18.46L110.43-18.46L110.43-18.46Q109.25-19.65 108.38-21.41L108.38-21.41L108.38-21.41Q107.52-23.17 107.52-25.47L107.52-25.47L107.52-25.47Q107.52-28.86 109.79-31.07L109.79-31.07L109.79-31.07Q112.06-33.28 115.90-33.28L115.90-33.28L121.47-33.28L121.47-29.44L116.86-29.44L116.86-29.44Q112.32-29.44 112.32-25.15L112.32-25.15L112.32-25.15Q112.32-23.49 113.34-22.27L113.34-22.27L113.34-22.27Q114.37-21.06 116.54-19.39L116.54-19.39L116.54-19.39Q118.53-17.86 119.81-16.61L119.81-16.61L119.81-16.61Q121.09-15.36 121.98-13.47L121.98-13.47L121.98-13.47Q122.88-11.58 122.88-9.02L122.88-9.02L122.88-9.02Q122.88-4.48 120.48-2.24L120.48-2.24L120.48-2.24Q118.08 0 113.73 0L113.73 0L107.52 0ZM133.76-38.72L128.64-38.72L128.64-43.84L133.76-43.84L133.76-38.72ZM133.76 0L128.64 0L128.64-33.28L133.76-33.28L133.76 0ZM162.18 0.45L162.18 0.45Q156.22 0.45 153.09-2.59L153.09-2.59L153.09-2.59Q149.95-5.63 149.95-11.07L149.95-11.07L149.95-33.73L149.95-33.73Q149.95-39.17 153.09-42.21L153.09-42.21L153.09-42.21Q156.22-45.25 162.18-45.25L162.18-45.25L162.18-45.25Q168.19-45.25 171.33-42.21L171.33-42.21L171.33-42.21Q174.46-39.17 174.46-33.73L174.46-33.73L174.46-11.07L174.46-11.07Q174.46-5.63 171.33-2.59L171.33-2.59L171.33-2.59Q168.19 0.45 162.18 0.45L162.18 0.45ZM162.18-3.78L162.18-3.78Q164.99-3.78 166.91-5.41L166.91-5.41L166.91-5.41Q168.83-7.04 168.83-9.98L168.83-9.98L168.83-34.82L168.83-34.82Q168.83-37.76 166.91-39.39L166.91-39.39L166.91-39.39Q164.99-41.02 162.18-41.02L162.18-41.02L162.18-41.02Q159.36-41.02 157.47-39.39L157.47-39.39L157.47-39.39Q155.58-37.76 155.58-34.82L155.58-34.82L155.58-9.98L155.58-9.98Q155.58-7.04 157.47-5.41L157.47-5.41L157.47-5.41Q159.36-3.78 162.18-3.78L162.18-3.78ZM181.06 0L181.06-33.28L185.02-33.28L185.60-31.42L188.22-32.19L188.22-32.19Q190.91-33.02 192.48-33.38L192.48-33.38L192.48-33.38Q194.05-33.73 195.46-33.73L195.46-33.73L195.46-33.73Q197.76-33.73 198.85-32.13L198.85-32.13L198.85-32.13Q199.94-30.53 199.94-27.97L199.94-27.97L199.94 0L194.82 0L194.82-26.30L194.82-26.30Q194.82-28.16 194.56-28.90L194.56-28.90L194.56-28.90Q194.30-29.63 193.28-29.63L193.28-29.63L193.28-29.63Q192.77-29.63 186.18-27.58L186.18-27.58L186.18 0L181.06 0ZM213.70 0L213.70 0Q210.18 0 208.10-2.11L208.10-2.11L208.10-2.11Q206.02-4.22 206.02-7.81L206.02-7.81L206.02-24.83L206.02-24.83Q206.02-28.99 208.32-31.36L208.32-31.36L208.32-31.36Q210.62-33.73 215.17-33.73L215.17-33.73L215.17-33.73Q219.71-33.73 221.98-31.36L221.98-31.36L221.98-31.36Q224.26-28.99 224.26-24.83L224.26-24.83L224.26-21.89L224.26-21.89Q224.26-19.20 222.72-17.82L222.72-17.82L222.72-17.82Q221.18-16.45 218.69-15.74L218.69-15.74L211.14-13.63L211.14-7.36L211.14-7.36Q211.14-5.82 212.06-4.83L212.06-4.83L212.06-4.83Q212.99-3.84 214.46-3.84L214.46-3.84L221.38-3.84L221.38 0L213.70 0ZM211.14-17.66L215.04-18.75L215.04-18.75Q217.15-19.33 217.89-19.62L217.89-19.62L217.89-19.62Q218.62-19.90 218.88-20.48L218.88-20.48L218.88-20.48Q219.14-21.06 219.14-22.40L219.14-22.40L219.14-25.92L219.14-25.92Q219.14-27.97 218.08-28.93L218.08-28.93L218.08-28.93Q217.02-29.89 215.17-29.89L215.17-29.89L215.17-29.89Q213.38-29.89 212.26-28.86L212.26-28.86L212.26-28.86Q211.14-27.84 211.14-25.92L211.14-25.92L211.14-17.66ZM233.28 0L228.16 0L228.16-6.59L233.28-6.59L233.28 0Z" fill="url(#editing-shiny-gradient)"></path></g></g><g filter="url(#editing-shiny2)"><g transform="translate(131.43999886512756, 97.85000038146973)"><path d="M3.84 0L3.84-33.28L7.81-33.28L8.38-31.42L11.01-32.19L11.01-32.19Q13.70-33.02 15.26-33.38L15.26-33.38L15.26-33.38Q16.83-33.73 18.24-33.73L18.24-33.73L18.24-33.73Q20.54-33.73 21.63-32.13L21.63-32.13L21.63-32.13Q22.72-30.53 22.72-27.97L22.72-27.97L22.72 0L17.60 0L17.60-26.30L17.60-26.30Q17.60-28.16 17.34-28.90L17.34-28.90L17.34-28.90Q17.09-29.63 16.06-29.63L16.06-29.63L16.06-29.63Q15.55-29.63 8.96-27.58L8.96-27.58L8.96 0L3.84 0ZM37.95 0.45L37.95 0.45Q33.47 0.45 31.01-1.82L31.01-1.82L31.01-1.82Q28.54-4.10 28.54-8.13L28.54-8.13L28.54-25.15L28.54-25.15Q28.54-29.18 31.01-31.46L31.01-31.46L31.01-31.46Q33.47-33.73 37.95-33.73L37.95-33.73L37.95-33.73Q42.43-33.73 44.90-31.46L44.90-31.46L44.90-31.46Q47.36-29.18 47.36-25.15L47.36-25.15L47.36-8.13L47.36-8.13Q47.36-4.10 44.90-1.82L44.90-1.82L44.90-1.82Q42.43 0.45 37.95 0.45L37.95 0.45ZM37.95-3.52L37.95-3.52Q40-3.52 41.18-4.70L41.18-4.70L41.18-4.70Q42.37-5.89 42.37-8.13L42.37-8.13L42.37-25.15L42.37-25.15Q42.37-27.39 41.18-28.58L41.18-28.58L41.18-28.58Q40-29.76 37.95-29.76L37.95-29.76L37.95-29.76Q35.90-29.76 34.72-28.58L34.72-28.58L34.72-28.58Q33.54-27.39 33.54-25.15L33.54-25.15L33.54-8.13L33.54-8.13Q33.54-5.89 34.72-4.70L34.72-4.70L34.72-4.70Q35.90-3.52 37.95-3.52L37.95-3.52ZM60.22 0L54.59 0L54.59-44.80L60.22-44.80L60.22-25.86L72.96-25.86L72.96-44.80L78.59-44.80L78.59 0L72.96 0L72.96-21.63L60.22-21.63L60.22 0ZM93.76 0L93.76 0Q90.24 0 88.16-2.11L88.16-2.11L88.16-2.11Q86.08-4.22 86.08-7.81L86.08-7.81L86.08-24.83L86.08-24.83Q86.08-28.99 88.38-31.36L88.38-31.36L88.38-31.36Q90.69-33.73 95.23-33.73L95.23-33.73L95.23-33.73Q99.78-33.73 102.05-31.36L102.05-31.36L102.05-31.36Q104.32-28.99 104.32-24.83L104.32-24.83L104.32-21.89L104.32-21.89Q104.32-19.20 102.78-17.82L102.78-17.82L102.78-17.82Q101.25-16.45 98.75-15.74L98.75-15.74L91.20-13.63L91.20-7.36L91.20-7.36Q91.20-5.82 92.13-4.83L92.13-4.83L92.13-4.83Q93.06-3.84 94.53-3.84L94.53-3.84L101.44-3.84L101.44 0L93.76 0ZM91.20-17.66L95.10-18.75L95.10-18.75Q97.22-19.33 97.95-19.62L97.95-19.62L97.95-19.62Q98.69-19.90 98.94-20.48L98.94-20.48L98.94-20.48Q99.20-21.06 99.20-22.40L99.20-22.40L99.20-25.92L99.20-25.92Q99.20-27.97 98.14-28.93L98.14-28.93L98.14-28.93Q97.09-29.89 95.23-29.89L95.23-29.89L95.23-29.89Q93.44-29.89 92.32-28.86L92.32-28.86L92.32-28.86Q91.20-27.84 91.20-25.92L91.20-25.92L91.20-17.66ZM107.52 0L107.52-3.84L112.96-3.84L112.96-3.84Q115.71-3.84 116.96-5.34L116.96-5.34L116.96-5.34Q118.21-6.85 118.21-9.28L118.21-9.28L118.21-9.28Q118.21-11.20 117.06-12.54L117.06-12.54L117.06-12.54Q115.90-13.89 113.60-15.68L113.60-15.68L113.60-15.68Q111.62-17.28 110.43-18.46L110.43-18.46L110.43-18.46Q109.25-19.65 108.38-21.41L108.38-21.41L108.38-21.41Q107.52-23.17 107.52-25.47L107.52-25.47L107.52-25.47Q107.52-28.86 109.79-31.07L109.79-31.07L109.79-31.07Q112.06-33.28 115.90-33.28L115.90-33.28L121.47-33.28L121.47-29.44L116.86-29.44L116.86-29.44Q112.32-29.44 112.32-25.15L112.32-25.15L112.32-25.15Q112.32-23.49 113.34-22.27L113.34-22.27L113.34-22.27Q114.37-21.06 116.54-19.39L116.54-19.39L116.54-19.39Q118.53-17.86 119.81-16.61L119.81-16.61L119.81-16.61Q121.09-15.36 121.98-13.47L121.98-13.47L121.98-13.47Q122.88-11.58 122.88-9.02L122.88-9.02L122.88-9.02Q122.88-4.48 120.48-2.24L120.48-2.24L120.48-2.24Q118.08 0 113.73 0L113.73 0L107.52 0ZM133.76-38.72L128.64-38.72L128.64-43.84L133.76-43.84L133.76-38.72ZM133.76 0L128.64 0L128.64-33.28L133.76-33.28L133.76 0ZM162.18 0.45L162.18 0.45Q156.22 0.45 153.09-2.59L153.09-2.59L153.09-2.59Q149.95-5.63 149.95-11.07L149.95-11.07L149.95-33.73L149.95-33.73Q149.95-39.17 153.09-42.21L153.09-42.21L153.09-42.21Q156.22-45.25 162.18-45.25L162.18-45.25L162.18-45.25Q168.19-45.25 171.33-42.21L171.33-42.21L171.33-42.21Q174.46-39.17 174.46-33.73L174.46-33.73L174.46-11.07L174.46-11.07Q174.46-5.63 171.33-2.59L171.33-2.59L171.33-2.59Q168.19 0.45 162.18 0.45L162.18 0.45ZM162.18-3.78L162.18-3.78Q164.99-3.78 166.91-5.41L166.91-5.41L166.91-5.41Q168.83-7.04 168.83-9.98L168.83-9.98L168.83-34.82L168.83-34.82Q168.83-37.76 166.91-39.39L166.91-39.39L166.91-39.39Q164.99-41.02 162.18-41.02L162.18-41.02L162.18-41.02Q159.36-41.02 157.47-39.39L157.47-39.39L157.47-39.39Q155.58-37.76 155.58-34.82L155.58-34.82L155.58-9.98L155.58-9.98Q155.58-7.04 157.47-5.41L157.47-5.41L157.47-5.41Q159.36-3.78 162.18-3.78L162.18-3.78ZM181.06 0L181.06-33.28L185.02-33.28L185.60-31.42L188.22-32.19L188.22-32.19Q190.91-33.02 192.48-33.38L192.48-33.38L192.48-33.38Q194.05-33.73 195.46-33.73L195.46-33.73L195.46-33.73Q197.76-33.73 198.85-32.13L198.85-32.13L198.85-32.13Q199.94-30.53 199.94-27.97L199.94-27.97L199.94 0L194.82 0L194.82-26.30L194.82-26.30Q194.82-28.16 194.56-28.90L194.56-28.90L194.56-28.90Q194.30-29.63 193.28-29.63L193.28-29.63L193.28-29.63Q192.77-29.63 186.18-27.58L186.18-27.58L186.18 0L181.06 0ZM213.70 0L213.70 0Q210.18 0 208.10-2.11L208.10-2.11L208.10-2.11Q206.02-4.22 206.02-7.81L206.02-7.81L206.02-24.83L206.02-24.83Q206.02-28.99 208.32-31.36L208.32-31.36L208.32-31.36Q210.62-33.73 215.17-33.73L215.17-33.73L215.17-33.73Q219.71-33.73 221.98-31.36L221.98-31.36L221.98-31.36Q224.26-28.99 224.26-24.83L224.26-24.83L224.26-21.89L224.26-21.89Q224.26-19.20 222.72-17.82L222.72-17.82L222.72-17.82Q221.18-16.45 218.69-15.74L218.69-15.74L211.14-13.63L211.14-7.36L211.14-7.36Q211.14-5.82 212.06-4.83L212.06-4.83L212.06-4.83Q212.99-3.84 214.46-3.84L214.46-3.84L221.38-3.84L221.38 0L213.70 0ZM211.14-17.66L215.04-18.75L215.04-18.75Q217.15-19.33 217.89-19.62L217.89-19.62L217.89-19.62Q218.62-19.90 218.88-20.48L218.88-20.48L218.88-20.48Q219.14-21.06 219.14-22.40L219.14-22.40L219.14-25.92L219.14-25.92Q219.14-27.97 218.08-28.93L218.08-28.93L218.08-28.93Q217.02-29.89 215.17-29.89L215.17-29.89L215.17-29.89Q213.38-29.89 212.26-28.86L212.26-28.86L212.26-28.86Q211.14-27.84 211.14-25.92L211.14-25.92L211.14-17.66ZM233.28 0L228.16 0L228.16-6.59L233.28-6.59L233.28 0Z" fill="url(#editing-shiny-gradient2)"></path></g></g><style>text {
  font-size: 64px;
  font-family: Arial Black;
  dominant-baseline: central;
  text-anchor: middle;
}</style></svg>